<svg width="17" height="16" viewBox="0 0 17 16" fill="none" xmlns="http://www.w3.org/2000/svg">
<path d="M0.480391 3.2C0.664815 2.29651 1.15574 1.48448 1.87007 0.901355C2.5844 0.318227 3.47827 -0.000188121 4.40039 8.33826e-08H12.4004C13.3225 -0.000188121 14.2164 0.318227 14.9307 0.901355C15.645 1.48448 16.136 2.29651 16.3204 3.2H0.480391ZM0.400391 4.8V12C0.400391 13.0609 0.821818 14.0783 1.57196 14.8284C2.32211 15.5786 3.33952 16 4.40039 16H12.4004C13.4613 16 14.4787 15.5786 15.2288 14.8284C15.979 14.0783 16.4004 13.0609 16.4004 12V4.8H0.400391ZM3.60039 7.2C3.60039 6.98783 3.68468 6.78434 3.83471 6.63432C3.98473 6.48429 4.18822 6.4 4.40039 6.4C4.61256 6.4 4.81605 6.48429 4.96608 6.63432C5.11611 6.78434 5.20039 6.98783 5.20039 7.2C5.20039 7.41217 5.11611 7.61566 4.96608 7.76569C4.81605 7.91571 4.61256 8 4.40039 8C4.18822 8 3.98473 7.91571 3.83471 7.76569C3.68468 7.61566 3.60039 7.41217 3.60039 7.2ZM3.60039 10.4C3.60039 10.1878 3.68468 9.98434 3.83471 9.83432C3.98473 9.68429 4.18822 9.6 4.40039 9.6C4.61256 9.6 4.81605 9.68429 4.96608 9.83432C5.11611 9.98434 5.20039 10.1878 5.20039 10.4C5.20039 10.6122 5.11611 10.8157 4.96608 10.9657C4.81605 11.1157 4.61256 11.2 4.40039 11.2C4.18822 11.2 3.98473 11.1157 3.83471 10.9657C3.68468 10.8157 3.60039 10.6122 3.60039 10.4ZM7.60039 6.4C7.81256 6.4 8.01605 6.48429 8.16608 6.63432C8.3161 6.78434 8.40039 6.98783 8.40039 7.2C8.40039 7.41217 8.3161 7.61566 8.16608 7.76569C8.01605 7.91571 7.81256 8 7.60039 8C7.38822 8 7.18473 7.91571 7.03471 7.76569C6.88468 7.61566 6.80039 7.41217 6.80039 7.2C6.80039 6.98783 6.88468 6.78434 7.03471 6.63432C7.18473 6.48429 7.38822 6.4 7.60039 6.4ZM6.80039 10.4C6.80039 10.1878 6.88468 9.98434 7.03471 9.83432C7.18473 9.68429 7.38822 9.6 7.60039 9.6C7.81256 9.6 8.01605 9.68429 8.16608 9.83432C8.3161 9.98434 8.40039 10.1878 8.40039 10.4C8.40039 10.6122 8.3161 10.8157 8.16608 10.9657C8.01605 11.1157 7.81256 11.2 7.60039 11.2C7.38822 11.2 7.18473 11.1157 7.03471 10.9657C6.88468 10.8157 6.80039 10.6122 6.80039 10.4ZM10.8004 6.4C11.0126 6.4 11.216 6.48429 11.3661 6.63432C11.5161 6.78434 11.6004 6.98783 11.6004 7.2C11.6004 7.41217 11.5161 7.61566 11.3661 7.76569C11.216 7.91571 11.0126 8 10.8004 8C10.5882 8 10.3847 7.91571 10.2347 7.76569C10.0847 7.61566 10.0004 7.41217 10.0004 7.2C10.0004 6.98783 10.0847 6.78434 10.2347 6.63432C10.3847 6.48429 10.5882 6.4 10.8004 6.4Z" fill="#B68B41"/>
</svg>
