<svg width="16" height="16" viewBox="0 0 16 16" fill="none" xmlns="http://www.w3.org/2000/svg">
<path d="M0.0809765 3.20001C0.265401 2.29652 0.756322 1.48449 1.47065 0.901365C2.18499 0.318236 3.07885 -0.000178549 4.00098 9.65482e-06H12.001C12.9231 -0.000178549 13.817 0.318236 14.5313 0.901365C15.2456 1.48449 15.7366 2.29652 15.921 3.20001H0.0809765ZM0.000976562 4.80001V12C0.000976563 13.0609 0.422404 14.0783 1.17255 14.8284C1.92269 15.5786 2.94011 16 4.00098 16H12.001C13.0618 16 14.0793 15.5786 14.8294 14.8284C15.5795 14.0783 16.001 13.0609 16.001 12V4.80001H0.000976562ZM3.20098 7.20001C3.20098 6.98784 3.28526 6.78435 3.43529 6.63432C3.58532 6.4843 3.7888 6.40001 4.00098 6.40001C4.21315 6.40001 4.41663 6.4843 4.56666 6.63432C4.71669 6.78435 4.80098 6.98784 4.80098 7.20001C4.80098 7.41218 4.71669 7.61567 4.56666 7.7657C4.41663 7.91572 4.21315 8.00001 4.00098 8.00001C3.7888 8.00001 3.58532 7.91572 3.43529 7.7657C3.28526 7.61567 3.20098 7.41218 3.20098 7.20001ZM3.20098 10.4C3.20098 10.1878 3.28526 9.98435 3.43529 9.83433C3.58532 9.6843 3.7888 9.60001 4.00098 9.60001C4.21315 9.60001 4.41663 9.6843 4.56666 9.83433C4.71669 9.98435 4.80098 10.1878 4.80098 10.4C4.80098 10.6122 4.71669 10.8157 4.56666 10.9657C4.41663 11.1157 4.21315 11.2 4.00098 11.2C3.7888 11.2 3.58532 11.1157 3.43529 10.9657C3.28526 10.8157 3.20098 10.6122 3.20098 10.4ZM7.20098 6.40001C7.41315 6.40001 7.61663 6.4843 7.76666 6.63432C7.91669 6.78435 8.00098 6.98784 8.00098 7.20001C8.00098 7.41218 7.91669 7.61567 7.76666 7.7657C7.61663 7.91572 7.41315 8.00001 7.20098 8.00001C6.9888 8.00001 6.78532 7.91572 6.63529 7.7657C6.48526 7.61567 6.40098 7.41218 6.40098 7.20001C6.40098 6.98784 6.48526 6.78435 6.63529 6.63432C6.78532 6.4843 6.9888 6.40001 7.20098 6.40001ZM6.40098 10.4C6.40098 10.1878 6.48526 9.98435 6.63529 9.83433C6.78532 9.6843 6.9888 9.60001 7.20098 9.60001C7.41315 9.60001 7.61663 9.6843 7.76666 9.83433C7.91669 9.98435 8.00098 10.1878 8.00098 10.4C8.00098 10.6122 7.91669 10.8157 7.76666 10.9657C7.61663 11.1157 7.41315 11.2 7.20098 11.2C6.9888 11.2 6.78532 11.1157 6.63529 10.9657C6.48526 10.8157 6.40098 10.6122 6.40098 10.4ZM10.401 6.40001C10.6131 6.40001 10.8166 6.4843 10.9667 6.63432C11.1167 6.78435 11.201 6.98784 11.201 7.20001C11.201 7.41218 11.1167 7.61567 10.9667 7.7657C10.8166 7.91572 10.6131 8.00001 10.401 8.00001C10.1888 8.00001 9.98532 7.91572 9.83529 7.7657C9.68526 7.61567 9.60098 7.41218 9.60098 7.20001C9.60098 6.98784 9.68526 6.78435 9.83529 6.63432C9.98532 6.4843 10.1888 6.40001 10.401 6.40001Z" fill="#9C7781"/>
</svg>
