<svg width="17" height="16" viewBox="0 0 17 16" fill="none" xmlns="http://www.w3.org/2000/svg">
<path d="M0.479414 3.20001C0.663838 2.29652 1.15476 1.48449 1.86909 0.901365C2.58342 0.318236 3.47729 -0.000178549 4.39941 9.65482e-06H12.3994C13.3215 -0.000178549 14.2154 0.318236 14.9297 0.901365C15.6441 1.48449 16.135 2.29652 16.3194 3.20001H0.479414ZM0.399414 4.80001V12C0.399414 13.0609 0.820841 14.0783 1.57099 14.8284C2.32113 15.5786 3.33855 16 4.39941 16H12.3994C13.4603 16 14.4777 15.5786 15.2278 14.8284C15.978 14.0783 16.3994 13.0609 16.3994 12V4.80001H0.399414ZM3.59941 7.20001C3.59941 6.98784 3.6837 6.78435 3.83373 6.63432C3.98376 6.4843 4.18724 6.40001 4.39941 6.40001C4.61159 6.40001 4.81507 6.4843 4.9651 6.63432C5.11513 6.78435 5.19941 6.98784 5.19941 7.20001C5.19941 7.41218 5.11513 7.61567 4.9651 7.7657C4.81507 7.91572 4.61159 8.00001 4.39941 8.00001C4.18724 8.00001 3.98376 7.91572 3.83373 7.7657C3.6837 7.61567 3.59941 7.41218 3.59941 7.20001ZM3.59941 10.4C3.59941 10.1878 3.6837 9.98435 3.83373 9.83433C3.98376 9.6843 4.18724 9.60001 4.39941 9.60001C4.61159 9.60001 4.81507 9.6843 4.9651 9.83433C5.11513 9.98435 5.19941 10.1878 5.19941 10.4C5.19941 10.6122 5.11513 10.8157 4.9651 10.9657C4.81507 11.1157 4.61159 11.2 4.39941 11.2C4.18724 11.2 3.98376 11.1157 3.83373 10.9657C3.6837 10.8157 3.59941 10.6122 3.59941 10.4ZM7.59941 6.40001C7.81159 6.40001 8.01507 6.4843 8.1651 6.63432C8.31513 6.78435 8.39941 6.98784 8.39941 7.20001C8.39941 7.41218 8.31513 7.61567 8.1651 7.7657C8.01507 7.91572 7.81159 8.00001 7.59941 8.00001C7.38724 8.00001 7.18376 7.91572 7.03373 7.7657C6.8837 7.61567 6.79941 7.41218 6.79941 7.20001C6.79941 6.98784 6.8837 6.78435 7.03373 6.63432C7.18376 6.4843 7.38724 6.40001 7.59941 6.40001ZM6.79941 10.4C6.79941 10.1878 6.8837 9.98435 7.03373 9.83433C7.18376 9.6843 7.38724 9.60001 7.59941 9.60001C7.81159 9.60001 8.01507 9.6843 8.1651 9.83433C8.31513 9.98435 8.39941 10.1878 8.39941 10.4C8.39941 10.6122 8.31513 10.8157 8.1651 10.9657C8.01507 11.1157 7.81159 11.2 7.59941 11.2C7.38724 11.2 7.18376 11.1157 7.03373 10.9657C6.8837 10.8157 6.79941 10.6122 6.79941 10.4ZM10.7994 6.40001C11.0116 6.40001 11.2151 6.4843 11.3651 6.63432C11.5151 6.78435 11.5994 6.98784 11.5994 7.20001C11.5994 7.41218 11.5151 7.61567 11.3651 7.7657C11.2151 7.91572 11.0116 8.00001 10.7994 8.00001C10.5872 8.00001 10.3838 7.91572 10.2337 7.7657C10.0837 7.61567 9.99941 7.41218 9.99941 7.20001C9.99941 6.98784 10.0837 6.78435 10.2337 6.63432C10.3838 6.4843 10.5872 6.40001 10.7994 6.40001Z" fill="#4B6565"/>
</svg>
