<svg width="33" height="33" viewBox="0 0 33 33" fill="none" xmlns="http://www.w3.org/2000/svg">
<path d="M12.2358 6.28737C12.2358 6.28737 8.77485 5.3892 6.89045 6.28737C6.61692 6.41775 6.31663 6.53951 5.97782 6.41775C5.56564 6.26962 5.28862 5.94151 5.32594 5.50512C5.35124 5.20932 5.44481 4.97162 5.71707 4.85324C6.11873 4.67861 6.41568 4.8395 6.7043 5.16894C7.44548 6.01493 6.96505 7.5157 6.89045 8.63413C6.79218 10.1074 6.89045 12.1543 6.89045 12.1543M6.89045 12.1543C7.19594 12.6125 7.35618 12.9915 7.7473 13.3826C8.15779 13.7931 8.39918 13.9041 8.92068 13.6433C9.11604 13.5457 9.43538 13.0901 9.36758 12.6758C9.20795 11.7002 6.89045 12.1543 6.89045 12.1543ZM6.89045 12.1543C6.89045 12.1543 5.62196 13.0228 4.93482 13.7188C4.09059 14.5739 3.10956 16.1959 3.10956 16.1959C3.10956 16.1959 2.37086 17.1347 1.75003 17.1635C1.37977 17.1807 1.12676 17.1356 0.893181 16.8478C0.636502 16.5315 0.653608 16.1342 0.893181 15.8048C1.22259 15.3518 1.61514 15.2763 2.14116 15.4686C2.85205 15.7285 3.20661 16.464 3.70567 17.0331C4.6599 18.1212 4.61829 19.2495 5.84745 19.9768C6.20899 20.1907 6.83467 20.2925 7.41195 20.3679C8.2688 20.4799 8.97949 20.7782 9.44218 20.1621C9.69431 19.8264 9.73548 19.5061 9.57256 19.1191C9.39584 18.6994 9.03915 18.5805 8.58533 18.5427C7.72128 18.4707 7.34369 19.2376 6.89045 19.9768C6.47727 20.6506 6.45385 21.1466 6.36895 21.9324C6.20163 23.4811 7.3062 24.2937 7.1512 25.8437C7.09953 26.3603 7.32039 26.8238 6.96505 27.2024C6.66734 27.5196 6.24347 27.7186 5.84745 27.5386C5.33758 27.3068 5.32594 26.6259 5.84745 26.1044C6.36895 25.5829 7.52293 25.6859 8.58533 25.8437C9.83331 26.029 10.5944 26.3618 11.7889 26.1044C12.5289 25.945 13.005 25.7277 13.5396 25.1918C13.8749 24.8556 14.0881 24.5949 14.1357 24.0734C14.1684 23.7148 14.144 23.5303 13.8749 23.2911C13.5139 22.9702 13.0588 23.2267 12.7016 23.5519C12.1992 24.0091 12.1801 24.4645 12.3662 25.1918C12.5658 25.9717 12.6327 26.4406 13.0181 27.1474C13.8138 28.607 15.2105 28.6106 16.2775 29.8853C16.6043 30.2757 17.0598 30.4425 17.2123 30.9283C17.3495 31.3655 17.4022 31.7973 17.0597 32.1017C16.7553 32.3723 16.3793 32.3143 16.0913 32.0263C15.8306 31.7655 15.8499 31.3551 16.0167 30.9283C16.3521 30.0706 16.594 29.8304 17.5812 29.1031C18.5685 28.3758 19.2067 28.0977 19.928 27.1474C20.2184 26.7648 20.4176 26.5565 20.5799 26.1044C20.8378 25.3856 20.7848 24.5949 20.6545 24.2037C20.5241 23.8126 20.2757 23.5902 19.928 23.4969C19.57 23.4009 19.1457 23.4969 19.0154 23.7577C18.885 24.0184 19 24.4169 19.1457 24.8007C19.4967 25.7249 20.2845 25.952 21.2317 26.2348C22.4602 26.6016 23.2793 26.2621 24.4911 25.8437C25.0872 25.6379 25.517 25.553 26.186 25.5829C26.7047 25.6062 27.2584 25.4242 27.5644 25.8437C27.7765 26.1345 27.7953 26.4417 27.6201 26.7563C27.4757 27.0157 27.2646 27.1651 26.9683 27.1474C26.5137 27.1203 26.4586 26.6097 26.391 26.1594C26.186 24.7943 26.4468 23.7206 26.4468 22.1932C26.4468 21.4659 26.4876 21.0217 26.186 20.3679C25.869 19.6806 25.6087 18.9887 24.9569 18.728C24.4577 18.5283 23.7835 18.5976 23.5785 19.0642C23.3953 19.4811 23.6886 19.8776 24.0442 20.1621C24.6961 20.6836 25.5839 20.4159 26.4468 20.1072C27.233 19.8258 27.6019 19.4406 28.1416 18.8034C28.8681 17.9457 29.0507 16.9204 30.0973 16.1959C30.5653 15.8719 30.8237 15.4686 31.4756 15.599C31.8287 15.6696 32.0529 15.8359 32.0529 16.1959C32.0529 16.5559 31.7364 16.7723 31.401 16.8478C30.4468 17.0624 29.4454 15.2833 29.4454 15.2833C29.4454 15.2833 28.9652 14.3528 28.5328 13.8491C27.9423 13.1613 27.5206 12.8158 26.7075 12.415C26.3173 12.2227 26.0957 12.0811 25.6645 12.0239C24.9911 11.9345 24.305 11.8181 23.9138 12.3396C23.6695 12.6654 23.6816 13.17 23.9696 13.458C24.2576 13.746 24.8265 13.6433 25.0872 13.513C25.568 13.2726 26.1256 12.3942 26.4468 11.5024C26.742 10.6824 26.7572 10.1561 26.7075 9.286C26.6504 8.28732 26.1421 7.80544 26.0556 6.80887C26.0116 6.30163 25.843 6.02271 26.0556 5.56007C26.2606 5.11399 26.7155 4.90804 27.0986 5.11399C27.5471 5.35505 27.416 6.02514 27.1732 6.47269C26.7781 7.20126 25.8695 7.12457 25.0126 6.80887C23.7559 6.34583 22.9153 5.93584 21.6229 6.28737C21.139 6.41898 20.6545 6.60307 20.2633 6.80887C19.6988 7.10594 19.3604 7.68366 19.6672 8.243C19.9229 8.70906 20.4266 8.89847 20.9152 8.68907C21.8278 8.29795 21.2696 7.00014 20.971 6.02662C20.3973 4.15654 18.617 4.08133 17.0597 2.89761C16.6544 2.5895 16.3657 2.48605 16.0167 2.11536C15.7002 1.77918 15.5683 1.05266 16.0167 0.811606C16.3999 0.60565 16.8781 0.807453 17.0597 1.20273C17.2647 1.64879 17.1776 1.93329 17.0597 2.37611C16.7795 3.42909 14.8433 4.07099 14.8433 4.07099C14.8433 4.07099 13.918 4.39572 13.5396 4.85324C13.1291 5.3495 12.9623 5.82081 13.0181 6.41775C13.1052 7.34974 13.3049 7.93807 13.9307 8.63413C14.9179 9.73207 15.8306 9.73207 17.0597 10.329C18.2301 10.8974 19.0425 11.0706 19.928 12.0239C21.0476 13.2292 21.6495 14.2976 21.4925 15.9351C21.3281 17.6501 20.5245 18.7546 19.0154 19.5857C17.4983 20.421 16.0631 20.6146 14.5826 19.716C13.3136 18.9458 12.4519 17.9307 12.627 16.4567C12.814 14.882 14.0407 13.6678 15.6256 13.7188C16.8679 13.7587 18.1027 14.1099 18.2331 15.544C18.3635 16.9781 17.6134 17.9371 16.5382 17.7604C15.8277 17.6436 15.1966 17.1757 15.2345 16.4567C15.2705 15.7726 16.0913 15.0775 16.5382 15.3382" stroke="white" stroke-width="0.649463"/>
</svg>
