<svg width="27" height="28" viewBox="0 0 27 28" fill="none" xmlns="http://www.w3.org/2000/svg">
<path d="M10.1346 26.3053C10.1346 26.3053 11.148 24.0867 11.546 22.5843C12.0378 20.7279 12.2251 19.6287 12.1875 17.7086C12.1549 16.0365 11.8972 15.1095 11.546 13.4744C11.2958 12.3099 11.0781 11.6754 10.7761 10.5233C10.5265 9.57098 10.1346 8.0854 10.1346 8.0854C10.1346 8.0854 8.95956 8.12805 8.46657 8.59864C7.66916 9.3598 8.20995 10.1979 8.46657 11.4214C8.67227 12.4023 8.72319 13.2773 8.46657 13.9876C8.29632 14.4589 8.17083 14.8519 7.69671 15.0141C6.92491 15.2781 6.587 14.2322 6.28531 13.4744C5.90038 12.5074 5.86234 11.6896 5.77207 10.5233C5.69861 9.57407 5.47273 8.98916 5.77207 8.0854C6.06513 7.20061 6.55475 6.84883 7.18348 6.16076C7.97544 5.29403 8.89111 5.24414 9.49304 4.23612C9.97297 3.43242 10.2797 2.85133 10.1346 1.92656C10.0407 1.32842 9.49304 0.515155 9.49304 0.515155C9.49304 0.515155 8.38418 1.35795 7.69671 1.92656C6.82132 2.65059 6.29371 3.02363 5.51546 3.8512C4.73267 4.68358 4.37541 5.2254 3.71913 6.16076C3.07238 7.08254 2.17941 8.59864 2.17941 8.59864C2.17941 8.59864 1.28125 9.54813 1.28125 12.8328C1.28125 16.1176 2.69265 18.9229 2.82096 20.2748C2.82096 20.2748 3.05606 24.7547 3.71913 25.4667C4.38219 26.1786 4.80613 26.1891 5.77207 26.3053C6.95145 26.4472 7.68341 25.7871 8.46657 24.8939C9.33371 23.905 9.19301 22.9668 9.49304 21.6862C9.74966 20.5909 9.74391 19.5328 10.7761 18.9917C11.575 18.5729 12.2557 18.6388 13.0857 18.9917C14.2495 19.4865 14.4971 20.4626 14.882 21.6862C15.2104 22.7301 15.1778 23.3943 15.6519 24.3807C16.0432 25.1948 16.2062 25.7716 16.935 26.3053C18.1882 27.223 19.3826 26.574 20.9126 26.3053C21.6787 26.1707 22.2686 25.9975 22.8372 25.4667C23.4788 24.8676 23.3818 23.8363 23.7354 22.5843C24.5715 19.6235 25.5317 16.34 25.9166 15.0141C26.3016 13.6882 25.6828 12.8109 25.4034 11.4214C25.0966 9.89622 24.9863 9.0014 24.2486 7.63167C23.5579 6.34926 21.939 4.74936 21.939 4.74936L20.1427 2.69641C20.1427 2.69641 18.5073 0.825092 17.4482 0.515154C16.9192 0.360345 16.935 0.515155 16.935 0.515155C16.935 0.515155 17.0217 1.53626 17.1916 2.37099C17.4266 3.52577 18.3464 4.42394 18.9879 5.06548C19.6295 5.70703 20.1427 6.28907 20.9126 8.0854C21.6824 9.88173 20.9126 12.4907 20.9126 13.4744C20.9126 13.4744 20.7485 14.7227 20.1427 15.0141C19.4852 15.3304 18.8414 15.0368 18.3464 14.5009C17.7004 13.8015 18.3464 12.063 18.3464 12.063C18.3464 12.063 18.8987 11.1685 18.9879 10.5233C19.1228 9.5481 19.236 8.50701 18.3464 8.0854C17.8483 7.84935 16.935 8.0854 16.935 8.0854C16.935 8.0854 16.5506 9.573 16.2934 10.5233C16.0489 11.4269 15.6519 12.8328 15.6519 12.8328C15.6519 12.8328 14.787 14.6763 14.882 15.9123C14.9549 16.8602 15.3953 18.2813 15.3953 18.2813C15.3953 18.2813 15.7802 19.5644 16.2934 20.2748C16.8977 21.1111 17.408 21.5664 17.5765 22.5843C17.6584 23.0787 17.5765 23.8674 17.5765 23.8674" stroke="white" stroke-width="0.649463"/>
</svg>
