<svg width="37" height="21" viewBox="0 0 37 21" fill="none" xmlns="http://www.w3.org/2000/svg">
<path d="M1.16602 11.926C1.16602 11.926 3.38337 9.43782 5.21471 8.35665C7.02632 7.28713 8.32368 7.22952 10.3131 6.50059C12.1298 5.83492 13.2558 5.68031 14.9616 4.78731C16.6858 3.88466 17.3864 2.98977 19.0102 1.93183C19.533 1.59126 19.7274 1.04174 20.3598 1.07519C20.9445 1.10612 21.4095 1.36074 21.5594 1.93183C21.7094 2.50293 21.5594 3.78789 20.9596 4.78731C20.3598 5.78672 18.5604 7.07169 18.5604 7.07169C18.5604 7.07169 16.592 8.1777 16.0112 9.35607C15.6793 10.0295 15.3962 10.4851 15.5614 11.2121C15.7715 12.137 16.4561 12.5339 17.3608 12.9254C18.427 13.3869 19.2867 13.3721 20.3598 12.9254C21.5006 12.4506 21.9401 11.7185 22.4591 10.641C22.977 9.56594 22.909 7.64278 22.909 7.64278C22.909 7.64278 22.6836 5.8816 22.909 4.78731C23.1015 3.85234 23.0411 3.11415 23.8087 2.50293C24.2925 2.11768 25.3082 1.93183 25.3082 1.93183C25.3082 1.93183 25.6673 3.23875 25.908 4.07344C26.2466 5.24773 26.5718 5.87484 26.8077 7.07169C27.0678 8.39145 27.3065 9.16887 27.1076 10.4983C26.8637 12.1292 26.0182 12.8508 25.3082 14.3531C24.7275 15.5819 24.6533 16.413 23.8087 17.4942C23.0916 18.4121 22.6632 19.0409 21.5594 19.493C20.2684 20.0218 19.3632 19.5771 17.9606 19.493C16.0099 19.3761 14.9609 18.9222 13.0122 18.7791C10.9687 18.6291 9.81347 18.7791 7.76388 18.7791C6.18277 18.7791 5.23783 19.1848 3.71519 18.7791C3.10781 18.6173 2.5361 18.7253 2.21568 18.208C1.84769 17.614 2.28129 17.0794 2.66553 16.4948C3.1567 15.7474 3.77527 15.5814 4.6149 15.2098C5.38809 14.8676 5.87437 14.7788 6.71422 14.6387C8.09857 14.4078 8.92468 14.4309 10.3131 14.6387C11.521 14.8195 12.1652 15.0916 13.3121 15.4953C14.6394 15.9626 15.2671 16.501 16.611 16.9231C17.5282 17.2111 18.0583 17.3389 19.0102 17.4942C21.1459 17.8425 22.3975 17.6445 24.5585 17.4942C26.3261 17.3712 27.3854 17.4838 29.057 16.9231C30.2429 16.5253 30.9081 16.2235 31.9061 15.4953C33.0255 14.6785 33.3326 13.8977 34.3053 12.9254C34.9908 12.2403 36.1047 11.2121 36.1047 11.2121C36.1047 11.2121 36.0569 10.5401 35.8048 10.2127C35.2808 9.53225 34.4262 9.77015 33.5555 9.92716C32.4384 10.1286 32.0643 10.846 31.1563 11.4977C30.5575 11.9275 30.3187 12.3042 29.6568 12.6399C28.9043 13.0215 28.4082 13.1564 27.5575 13.211" stroke="white" stroke-width="0.719676"/>
</svg>
