<svg width="20" height="15" viewBox="0 0 20 15" fill="none" xmlns="http://www.w3.org/2000/svg">
<path d="M13.9559 4.71983L9.89941 1.27463L5.84291 4.71983L5.14941 4.04557L9.89941 0L14.6494 4.04557L13.9559 4.71983ZM13.6994 6.15148L9.85191 9.31958L6.09941 6.11453V5.43103L9.89941 2.19828L13.6994 5.43103V6.15148ZM10.8494 7.33374V5.76355H8.94941V7.33374H10.8494ZM9.20591 11.056L5.14941 7.61084L1.09291 11.056L0.399414 10.3818L5.14941 6.33621L9.89941 10.3818L9.20591 11.056ZM18.7059 11.056L14.6494 7.61084L10.5929 11.056L9.89941 10.3818L14.6494 6.33621L19.3994 10.3818L18.7059 11.056ZM5.14941 8.53448L8.94941 11.7672V15H1.34941V11.7672L5.14941 8.53448ZM14.6494 8.53448L18.4494 11.7672V15H10.8494V11.7672L14.6494 8.53448ZM6.09941 14.0764V12.2291H4.19941V14.0764H6.09941ZM15.5994 14.0764V12.2291H13.6994V14.0764H15.5994Z" fill="#4B6565"/>
</svg>
