<svg width="19" height="15" viewBox="0 0 19 15" fill="none" xmlns="http://www.w3.org/2000/svg">
<path d="M13.5575 4.71983L9.50098 1.27463L5.44448 4.71983L4.75098 4.04557L9.50098 0L14.251 4.04557L13.5575 4.71983ZM13.301 6.15148L9.45348 9.31958L5.70098 6.11453V5.43103L9.50098 2.19828L13.301 5.43103V6.15148ZM10.451 7.33374V5.76355H8.55098V7.33374H10.451ZM8.80748 11.056L4.75098 7.61084L0.694477 11.056L0.000976562 10.3818L4.75098 6.33621L9.50098 10.3818L8.80748 11.056ZM18.3075 11.056L14.251 7.61084L10.1945 11.056L9.50098 10.3818L14.251 6.33621L19.001 10.3818L18.3075 11.056ZM4.75098 8.53448L8.55098 11.7672V15H0.950977V11.7672L4.75098 8.53448ZM14.251 8.53448L18.051 11.7672V15H10.451V11.7672L14.251 8.53448ZM5.70098 14.0764V12.2291H3.80098V14.0764H5.70098ZM15.201 14.0764V12.2291H13.301V14.0764H15.201Z" fill="#9C7781"/>
</svg>
