<svg width="20" height="15" viewBox="0 0 20 15" fill="none" xmlns="http://www.w3.org/2000/svg">
<path d="M13.9569 4.71983L9.90039 1.27463L5.84389 4.71983L5.15039 4.04557L9.90039 0L14.6504 4.04557L13.9569 4.71983ZM13.7004 6.15148L9.85289 9.31958L6.10039 6.11453V5.43103L9.90039 2.19828L13.7004 5.43103V6.15148ZM10.8504 7.33374V5.76355H8.95039V7.33374H10.8504ZM9.20689 11.056L5.15039 7.61084L1.09389 11.056L0.400391 10.3818L5.15039 6.33621L9.90039 10.3818L9.20689 11.056ZM18.7069 11.056L14.6504 7.61084L10.5939 11.056L9.90039 10.3818L14.6504 6.33621L19.4004 10.3818L18.7069 11.056ZM5.15039 8.53448L8.95039 11.7672V15H1.35039V11.7672L5.15039 8.53448ZM14.6504 8.53448L18.4504 11.7672V15H10.8504V11.7672L14.6504 8.53448ZM6.10039 14.0764V12.2291H4.20039V14.0764H6.10039ZM15.6004 14.0764V12.2291H13.7004V14.0764H15.6004Z" fill="#B68B41"/>
</svg>
