<svg width="16" height="15" viewBox="0 0 16 15" fill="none" xmlns="http://www.w3.org/2000/svg">
<path d="M7.90039 0C12.0426 0 15.4004 3.35775 15.4004 7.5C15.4004 11.6423 12.0426 15 7.90039 15C3.75814 15 0.400391 11.6423 0.400391 7.5C0.400391 3.35775 3.75814 0 7.90039 0ZM7.90039 3C7.70148 3 7.51071 3.07902 7.37006 3.21967C7.22941 3.36032 7.15039 3.55109 7.15039 3.75V7.5C7.15043 7.6989 7.22948 7.88963 7.37014 8.03025L9.62014 10.2802C9.76159 10.4169 9.95104 10.4925 10.1477 10.4908C10.3443 10.489 10.5324 10.4102 10.6715 10.2711C10.8106 10.1321 10.8894 9.94395 10.8911 9.7473C10.8929 9.55065 10.8173 9.3612 10.6806 9.21975L8.65039 7.1895V3.75C8.65039 3.55109 8.57137 3.36032 8.43072 3.21967C8.29007 3.07902 8.0993 3 7.90039 3Z" fill="#B68B41"/>
</svg>
