<svg width="15" height="15" viewBox="0 0 15 15" fill="none" xmlns="http://www.w3.org/2000/svg">
<path d="M7.50098 0C11.6432 0 15.001 3.35775 15.001 7.5C15.001 11.6423 11.6432 15 7.50098 15C3.35873 15 0.000976562 11.6423 0.000976562 7.5C0.000976562 3.35775 3.35873 0 7.50098 0ZM7.50098 3C7.30206 3 7.1113 3.07902 6.97065 3.21967C6.82999 3.36032 6.75098 3.55109 6.75098 3.75V7.5C6.75102 7.6989 6.83006 7.88963 6.97073 8.03025L9.22073 10.2802C9.36218 10.4169 9.55163 10.4925 9.74828 10.4908C9.94493 10.489 10.133 10.4102 10.2721 10.2711C10.4111 10.1321 10.49 9.94395 10.4917 9.7473C10.4934 9.55065 10.4178 9.3612 10.2812 9.21975L8.25098 7.1895V3.75C8.25098 3.55109 8.17196 3.36032 8.03131 3.21967C7.89065 3.07902 7.69989 3 7.50098 3Z" fill="#9C7781"/>
</svg>
