<svg width="16" height="15" viewBox="0 0 16 15" fill="none" xmlns="http://www.w3.org/2000/svg">
<path d="M7.89941 0C12.0417 0 15.3994 3.35775 15.3994 7.5C15.3994 11.6423 12.0417 15 7.89941 15C3.75716 15 0.399414 11.6423 0.399414 7.5C0.399414 3.35775 3.75716 0 7.89941 0ZM7.89941 3C7.7005 3 7.50974 3.07902 7.36908 3.21967C7.22843 3.36032 7.14941 3.55109 7.14941 3.75V7.5C7.14946 7.6989 7.2285 7.88963 7.36916 8.03025L9.61916 10.2802C9.76062 10.4169 9.95007 10.4925 10.1467 10.4908C10.3434 10.489 10.5315 10.4102 10.6705 10.2711C10.8096 10.1321 10.8885 9.94395 10.8902 9.7473C10.8919 9.55065 10.8163 9.3612 10.6797 9.21975L8.64941 7.1895V3.75C8.64941 3.55109 8.5704 3.36032 8.42974 3.21967C8.28909 3.07902 8.09833 3 7.89941 3Z" fill="#4B6565"/>
</svg>
