<svg width="16" height="16" viewBox="0 0 16 16" fill="none" xmlns="http://www.w3.org/2000/svg">
<path d="M14.8005 3.70301C12.4108 -0.00151512 7.51719 -1.09915 3.73263 1.19903C0.0395392 3.4972 -1.14957 8.50517 1.24008 12.1983L1.43445 12.4955L0.634092 15.4912L3.62973 14.6908L3.927 14.8852C5.21901 15.5826 6.62536 15.9828 8.02028 15.9828C9.51809 15.9828 11.0159 15.5826 12.3079 14.7823C16.001 12.3812 17.0986 7.47614 14.8005 3.68014V3.70301ZM12.7081 11.4093C12.3079 12.0039 11.8048 12.4041 11.1074 12.507C10.7072 12.507 10.2041 12.7013 8.21465 11.9124C6.52246 11.1121 5.11611 9.80862 4.12138 8.3108C3.52682 7.61334 3.21811 6.71008 3.12664 5.80681C3.12664 5.00645 3.42392 4.309 3.927 3.80591C4.12138 3.61154 4.32718 3.50864 4.52156 3.50864H5.02464C5.21901 3.50864 5.42482 3.50864 5.52772 3.90882C5.7221 4.4119 6.22518 5.61244 6.22518 5.71534C6.32808 5.81825 6.28235 6.58431 5.825 7.01879C5.57346 7.30463 5.52772 7.31607 5.63063 7.52187C6.03081 8.11643 6.53389 8.72241 7.02554 9.2255C7.6201 9.72858 8.22608 10.1288 8.92354 10.426C9.11791 10.5289 9.32372 10.5289 9.42662 10.3231C9.52953 10.1288 10.0212 9.62568 10.227 9.41987C10.4214 9.2255 10.5243 9.2255 10.7301 9.31697L12.3308 10.1173C12.5252 10.2202 12.731 10.3117 12.8339 10.4146C12.9368 10.7119 12.9368 11.1121 12.731 11.4093H12.7081Z" fill="#BD9658"/>
</svg>
